<?xml version="1.0" encoding="UTF-8"?>
<svg id="Layer_1" data-name="Layer 1" xmlns="http://www.w3.org/2000/svg" viewBox="0 0 1140 219">
  <defs>
    <style>
      .cls-1 {
        fill: #3e599a;
      }

      .cls-1, .cls-2, .cls-3 {
        stroke-width: 0px;
      }

      .cls-2 {
        fill: #fdfdfe;
      }

      .cls-3 {
        fill: #2a3570;
      }
    </style>
  </defs>
  <path class="cls-2" d="M1140,219H0V0h1140v219ZM513.85,85.1c-2.34,0-4.18.24-5.93-.05-4.58-.74-6.72.92-7.76,5.62-2.37,10.71-5.35,21.29-8.12,31.91-.29,1.11-.06,2.59-1.8,3.16-3.43-11.75-6.9-23.38-10.19-35.06-1.01-3.61-1.97-5.91-6.78-5.85-4.61.06-5.39,2.31-6.34,5.68-2.89,10.24-5.92,20.44-9.03,30.62-.41,1.35-.09,3.48-2.52,3.74-3.42-13.23-6.82-26.4-10.22-39.55h-12.05c3.81,14.62,7.51,28.93,11.29,43.23,3.39,12.83,3.43,12.83,16.72,12.46.48-.01.96-.2,1.62-.35,3.43-10.85,6.88-21.75,10.7-33.81,3.89,12.21,7.39,23.19,10.81,33.91h15.08c4.84-18.52,9.62-36.83,14.54-55.67ZM1050.24,99.33c.34.09.67.18,1.01.28,1.16,13.73,2.33,27.45,3.49,41.17h9.21c-1.45-18.65-2.88-36.99-4.3-55.23q-12.76-1.54-16.8,9.51c-.92,2.5-1.87,4.99-2.8,7.48-2.51,6.76-5.02,13.53-7.65,20.65-2.19-1.87-2.44-3.92-3.1-5.69-3.53-9.52-6.91-19.08-10.45-28.6-.58-1.55-.57-3.95-3.2-3.79-3.74.24-7.57-.66-11.28.55-1.48,18.44-2.93,36.65-4.41,55.08h9.37c1.2-13.94,2.38-27.59,3.56-41.25,5.38,12.19,10.07,24.41,14.22,36.81,1.42,4.23,3.46,5.64,7.86,4.34,5.05-13.66,10.16-27.49,15.27-41.32ZM310.58,85.08v55.61h11.5v-37.74c2.09,1.06,2.55,2.74,3.39,4.08,6.35,10.17,12.61,20.39,18.99,30.55.82,1.31,1.18,3.37,3.27,3.41,4.08.09,8.16.03,12,.03v-55.73h-11.44v38.17c-1.01-.92-1.3-1.09-1.45-1.34-7.11-11.27-14.19-22.55-21.31-33.81-.94-1.49-1.51-3.34-3.93-3.25-3.61.14-7.23.04-11.01.04ZM370.79,112.71c.05,17.76,11.48,29.29,28.95,29.21,16.39-.08,28.24-12.14,28.13-28.62-.12-17.31-11.99-29.26-28.82-29.01-16.82.24-28.31,11.79-28.26,28.43ZM523.11,140.89c9.02,0,17.83.44,26.57-.12,8.75-.57,13.57-6.71,13.6-15.47.02-6.81-3.58-11.03-9.75-13.8,5.94-4.44,6.79-10.12,4.88-16.32-1.96-6.38-7.11-9.27-13.24-9.7-7.24-.51-14.54-.12-22.06-.12v55.54ZM622.93,140.83c-6.65-18.02-13.21-35.76-19.7-53.53-.63-1.73-1.59-2.28-3.31-2.24-3.81.08-7.63.02-11.71.02-6.85,18.62-13.63,37.05-20.52,55.79h11.8c.82-2.26,1.85-4.37,2.33-6.6.81-3.75,2.82-5.05,6.65-4.77,4.8.35,9.66.3,14.46,0,3.3-.21,4.64,1.15,5.62,4.11,2.5,7.53,2.63,7.5,10.48,7.42,1.14-.01,2.28-.12,3.88-.21ZM298.75,99.37c0-.9.17-1.59-.03-2.15-3.03-8.46-9.73-11.89-18.07-12.69-8.14-.78-15.82.45-20.81,7.84-5.79,8.57-1.67,18.45,9.22,22.5,4.52,1.68,9.23,2.85,13.69,4.66,3.33,1.36,5.46,3.95,4.4,7.92-.98,3.67-3.93,4.67-7.29,4.89-6.78.43-10.84-3.08-12.66-9.4-4.12,1.01-7.75,1.9-11.5,2.81,1.16,6.65,4.7,10.8,10.07,13.41,6.04,2.94,12.46,3.47,19.01,2.19,8.79-1.71,13.98-6.94,14.72-14.66.72-7.46-3.34-13.16-11.91-16.38-4.51-1.7-9.19-2.95-13.68-4.68-2.72-1.05-5.19-2.79-4.48-6.3.69-3.41,3.27-4.83,6.49-5.28,6.16-.86,10.25,1.8,12.35,7.72,3.46-.79,6.68-1.53,10.47-2.4ZM805.35,98.61c-2.76-10.72-12.48-15.88-25.42-13.7-8.95,1.51-13.86,6.2-14.57,13.94-.7,7.54,3.1,12.46,11.98,15.49,4.57,1.56,9.2,2.93,13.7,4.66,3.52,1.35,6.06,3.89,5.47,7.97-.64,4.41-3.8,6.42-8.04,6.88-7.69.82-13.32-1.91-15.73-9.64-3.27.77-6.15,1.46-9.23,2.18,1.45,6.51,5.1,10.74,10.81,13.17,6.87,2.92,13.86,3.14,20.95.7,8.29-2.85,12.34-9.4,10.6-17.87-1.33-6.47-6.29-9.52-12-11.54-4.86-1.72-9.85-3.08-14.68-4.87-3.13-1.15-4.82-3.65-4.28-7.08.53-3.29,2.7-5.2,5.93-5.98,7.16-1.72,11.31.2,16.54,7.85,2.59-.71,5.28-1.44,7.96-2.17ZM1073.53,126.38c2.76,11.25,13.91,17.51,26.45,15.19,5.29-.98,10.42-2.49,13.62-7.4,5.7-8.75,2.06-18.63-8.63-22.84-4.94-1.94-10.12-3.26-15.15-4.97-3.56-1.2-5.62-3.6-4.98-7.55.63-3.85,3.29-5.49,6.93-6.04,7.01-1.07,12.47.82,15.08,8.09,3-.84,5.64-1.57,8.28-2.31-2.89-10.79-12.67-15.88-25.56-13.65-8.5,1.47-13.94,6.81-14.45,14.16-.51,7.31,3.29,12.23,11.79,15.18,4.55,1.58,9.15,3.04,13.69,4.64,4.11,1.45,6.38,4.23,5.55,8.77-.8,4.39-4.2,5.75-8.03,6.18-7.68.87-13.2-2.13-15.64-9.63-3.17.77-5.91,1.43-8.95,2.17ZM862.91,126.37c1.52,12.48,17.8,18.46,30.88,14.14,8.22-2.71,11.81-7.91,11.34-16.49-.42-7.66-5.84-10.77-11.95-13.08-4.81-1.82-9.81-3.12-14.66-4.86-3.11-1.11-5.01-3.42-4.51-6.9.5-3.51,2.75-5.6,6.22-6.27,7.32-1.41,13.16.39,16.01,8,3.07-.88,5.68-1.63,8.29-2.38-2.84-9.64-11.27-14.98-21.78-14.16-10.87.84-17.33,5.92-18.22,14.33-.88,8.36,3.24,12.95,14.61,16.49,3.81,1.18,7.62,2.4,11.3,3.93,3.5,1.45,5.8,4.09,5.19,8.16-.6,4.04-3.59,5.79-7.28,6.49-7.61,1.43-12.52-1.36-16.7-9.49-2.82.68-5.69,1.37-8.73,2.1ZM989.09,132.63h-20.99v-15.49h18.51v-8.18h-18.44v-15.49h20.97c.29-2.93.49-5.5-.18-8.11h-30.58v55.49h30.61c.62-2.65.43-5.1.09-8.22ZM680.85,131.06v-45.76h-11.2v55.54h28.71v-9.77h-17.51ZM643.04,85.17c-4.32.07-7.91-.56-11.46.39v55.28h28.8v-9.92h-17.34v-45.75ZM839.44,140.85c0-1.96.18-3.46-.03-4.91-2.2-15.16,2.08-28.34,11.65-40.15,2.49-3.07,4.85-6.48,6.11-10.22-7.28-2.29-11.45.61-14.37,6.94-2.12,4.59-5.2,8.75-8.13,13.56-3.14-5.2-6.37-9.53-8.5-14.36-2.9-6.57-7.51-7.9-14.32-6.06,5.27,8.39,10.36,16.7,15.68,24.86,1.81,2.77,2.63,5.53,2.54,8.84-.18,7.09-.06,14.2-.06,21.49h9.43ZM934.91,140.84v-46.94c4.76-.81,9.11.36,13.32-.8.32-2.69.51-5.14-.13-7.6h-36.53v8.11h13.61c0,8.21,0,15.97,0,23.74s0,15.54,0,23.5h9.72ZM33.02,119.07c-6.92.03-12.72,5.83-12.74,12.73-.02,6.85,5.82,12.72,12.72,12.8,6.93.08,12.81-5.62,12.92-12.52.12-7.18-5.7-13.04-12.91-13.01ZM168.06,97.22c-.11,7.18,5.76,13.21,12.81,13.18,6.79-.03,12.73-5.97,12.77-12.79.04-6.94-5.65-12.68-12.63-12.75-7.18-.07-12.83,5.33-12.94,12.36ZM89.44,54.12c7.22-.02,12.56-5.46,12.48-12.72-.08-7.16-5.58-12.61-12.73-12.63-7.08-.02-12.89,5.62-12.87,12.51.01,7.25,5.75,12.85,13.13,12.83ZM137.58,188.11c.15-7.03-5.33-12.88-12.29-13.1-7.07-.23-12.95,5.15-13.22,12.1-.28,7.38,5.17,13.21,12.47,13.33,7.11.12,12.89-5.35,13.04-12.33ZM59.19,37.89c-5.72-.08-10.68,4.61-10.78,10.21-.1,5.62,4.68,10.59,10.32,10.74,5.68.15,10.6-4.57,10.72-10.28.13-5.71-4.56-10.58-10.27-10.66ZM154.88,170.8c-5.71.04-10.56,4.92-10.45,10.5.11,5.64,5.08,10.55,10.62,10.49,5.61-.06,10.46-5.05,10.38-10.66-.09-5.87-4.68-10.37-10.55-10.33ZM39.83,111.48c5.84-.05,10.42-4.67,10.35-10.44-.07-5.77-4.79-10.47-10.48-10.44-5.66.03-10.54,4.97-10.41,10.54.13,5.8,4.82,10.4,10.54,10.34ZM163.81,67.46c.04,5.92,4.58,10.5,10.39,10.48,5.58-.02,10.6-5.03,10.55-10.54-.05-5.61-4.95-10.44-10.61-10.45-5.81,0-10.37,4.63-10.33,10.51ZM50.17,161.94c0-5.82-4.64-10.58-10.34-10.61-5.61-.03-10.55,4.89-10.55,10.5,0,5.79,4.65,10.47,10.42,10.5,5.82.03,10.47-4.59,10.47-10.39ZM163.8,128.26c-.03,5.9,4.42,10.52,10.23,10.63,5.55.1,10.7-4.86,10.7-10.31,0-5.61-4.89-10.6-10.43-10.65-5.86-.05-10.47,4.49-10.5,10.33ZM93.89,170.8c-5.82.04-10.55,4.77-10.44,10.46.11,5.7,4.98,10.58,10.54,10.55,5.51-.03,10.56-5.15,10.49-10.63-.08-5.71-4.88-10.41-10.59-10.38ZM119.76,37.88c-5.66.11-10.47,5.1-10.28,10.67.2,5.73,5.08,10.41,10.74,10.28,5.7-.13,10.4-5.07,10.22-10.73-.18-5.82-4.9-10.32-10.69-10.21ZM141.48,57.31c-4.01.12-7.28,3.55-7.12,7.47.16,3.93,3.65,7.2,7.55,7.09,3.94-.11,7.19-3.57,7.05-7.51-.14-4.08-3.43-7.17-7.49-7.05ZM165.17,45.69c.04-4.14-2.94-7.37-6.97-7.54-4.19-.17-7.58,3.21-7.51,7.49.07,4.14,3.14,7.2,7.23,7.21,4.08.01,7.2-3.08,7.25-7.17ZM72.2,172.17c4.08,0,7.35-3.1,7.4-7.03.05-4.16-3.44-7.62-7.57-7.49-4.07.12-7.1,3.31-7.04,7.41.06,4.21,3,7.11,7.21,7.11ZM184.11,165.42c.17-4.3-2.65-7.52-6.77-7.74-4.12-.22-7.45,2.77-7.68,6.88-.23,4.21,2.65,7.42,6.82,7.6,4.35.19,7.46-2.56,7.63-6.74ZM165.15,150.25c.04-4.19-2.92-7.27-7.07-7.32-4.19-.06-7.31,2.91-7.38,7.03-.07,4.05,3.07,7.32,7.09,7.41,4.04.08,7.31-3.08,7.36-7.11ZM56.06,72.14c-4.08-.03-7.31,3.12-7.32,7.15,0,3.98,3.29,7.39,7.16,7.41,3.96.02,7.26-3.27,7.28-7.25.02-4.2-2.98-7.27-7.12-7.31ZM63.18,183.99c.03-4.26-2.93-7.32-7.1-7.37-4.16-.05-7.25,3.01-7.29,7.2-.04,4.23,2.91,7.25,7.13,7.29,4.26.04,7.24-2.88,7.27-7.11ZM44.31,64.84c.07-4.08-2.99-7.35-7.03-7.52-4.03-.17-7.34,2.96-7.43,7.01-.09,4.15,2.91,7.39,6.94,7.52,3.96.13,7.45-3.12,7.52-7.01ZM153.18,86.94c2.78-.29,4.56-1.73,4.51-4.43-.05-2.62-1.7-4.43-4.44-4.32-2.39.1-4.04,1.69-4.14,4.15-.1,2.69,1.43,4.27,4.07,4.6ZM29,82.2c-.47-2.56-2.02-4.25-4.71-3.99-2.65.25-4.18,2.16-3.91,4.84.25,2.4,1.77,3.99,4.36,3.81,2.72-.19,4.12-1.84,4.25-4.67ZM189.09,142.6c-2.25.39-4.12,1.57-4.05,4.42.06,2.49,1.45,4.06,4.06,4.05,2.74-.01,4.45-1.51,4.42-4.27-.02-2.49-1.62-3.87-4.43-4.21ZM139.4,166.02c2.66-.21,4.46-1.5,4.48-4.3.02-2.49-1.52-4.17-3.97-4.29-2.72-.13-4.44,1.61-4.5,4.28-.06,2.42,1.41,3.98,3.99,4.3ZM139.97,28.7c-2.64.11-4.37,1.4-4.54,3.83-.19,2.65,1.42,4.48,4.08,4.67,2.46.17,4.15-1.36,4.35-3.81.22-2.7-1.37-4.25-3.89-4.69ZM78.67,67.75c-.37-2.64-1.83-4.45-4.51-4.4-2.39.05-4.03,1.61-4.11,4.16-.08,2.56,1.45,4.16,3.87,4.37,2.75.24,4.21-1.53,4.75-4.13ZM74.43,192.08c-2.4.26-4.14,1.41-4.34,3.93-.23,2.8,1.52,4.49,4.08,4.68,2.4.18,4.19-1.44,4.38-3.85.2-2.67-1.48-4.23-4.11-4.76ZM60.69,151.12c2.57-.31,4.28-1.74,4.12-4.5-.15-2.45-1.8-3.99-4.28-3.91-2.7.09-4.39,1.8-4.24,4.49.14,2.38,1.71,3.86,4.4,3.92ZM59.07,132.88c-.24-1.6-1.06-2.81-2.81-2.78-1.96.04-3.06,1.34-2.89,3.21.15,1.61,1.28,2.71,3.04,2.56,1.7-.15,2.6-1.22,2.66-3ZM196.77,133.09c-.2-1.58-1.05-2.81-2.69-2.96-1.97-.18-3.06,1.06-3.04,2.99.02,1.72,1.08,2.74,2.8,2.75,1.72,0,2.66-1.04,2.92-2.78ZM128.92,165.89c-.32-1.33-1.08-2.64-2.81-2.65-1.64-.01-2.89.97-2.97,2.71-.08,1.73,1.04,2.85,2.71,2.93,1.71.08,2.67-1.05,3.07-2.99ZM20.16,93.6c-1.66.15-2.84,1.11-2.91,2.76-.08,1.66.98,2.8,2.76,2.86,1.76.06,2.88-.86,2.94-2.64.06-1.76-1.04-2.68-2.78-2.98ZM88.05,197.92c-1.66.08-2.78,1.03-2.89,2.67-.13,1.93,1.03,3.12,2.97,3.09,1.71-.03,2.73-1.14,2.7-2.85-.03-1.66-.99-2.7-2.78-2.91ZM88.56,66.08c1.59-.22,2.6-1.18,2.44-2.95-.15-1.71-1.25-2.73-2.97-2.59-1.69.14-2.77,1.31-2.64,2.98.13,1.64,1.26,2.61,3.17,2.56ZM160.66,96.47c-.33-1.58-1.17-2.78-2.89-2.79-1.69,0-2.78.99-2.81,2.75-.03,1.78.98,2.72,2.75,2.73,1.76.02,2.66-.99,2.95-2.69ZM125.77,25.84c-1.35.33-2.63.99-2.64,2.8-.02,1.8,1.12,2.73,2.79,2.75,1.67.02,2.88-.91,2.88-2.68,0-1.73-1.14-2.6-3.03-2.87Z"/>
  <path class="cls-3" d="M513.85,85.1c-4.92,18.84-9.7,37.14-14.54,55.67h-15.08c-3.42-10.71-6.92-21.7-10.81-33.91-3.82,12.07-7.26,22.96-10.7,33.81-.66.15-1.13.34-1.62.35-13.29.36-13.33.37-16.72-12.46-3.78-14.29-7.47-28.61-11.29-43.23h12.05c3.4,13.16,6.8,26.32,10.22,39.55,2.44-.27,2.11-2.4,2.52-3.74,3.11-10.18,6.14-20.38,9.03-30.62.95-3.38,1.73-5.62,6.34-5.68,4.81-.06,5.77,2.24,6.78,5.85,3.28,11.68,6.76,23.31,10.19,35.06,1.74-.57,1.51-2.05,1.8-3.16,2.77-10.62,5.75-21.2,8.12-31.91,1.04-4.7,3.18-6.36,7.76-5.62,1.75.28,3.59.05,5.93.05Z"/>
  <path class="cls-3" d="M1050.24,99.33c-5.11,13.83-10.23,27.66-15.27,41.32-4.4,1.3-6.44-.12-7.86-4.34-4.16-12.4-8.84-24.63-14.22-36.81-1.18,13.66-2.35,27.31-3.56,41.25h-9.37c1.47-18.44,2.93-36.64,4.41-55.08,3.71-1.2,7.54-.31,11.28-.55,2.63-.17,2.62,2.23,3.2,3.79,3.54,9.51,6.93,19.08,10.45,28.6.66,1.77.91,3.82,3.1,5.69,2.64-7.12,5.14-13.88,7.65-20.65.93-2.5,1.88-4.98,2.8-7.48q4.05-11.05,16.8-9.51c1.42,18.24,2.85,36.58,4.3,55.23h-9.21c-1.16-13.72-2.33-27.44-3.49-41.17-.34-.09-.67-.18-1.01-.28Z"/>
  <path class="cls-3" d="M310.58,85.08c3.78,0,7.4.1,11.01-.04,2.42-.09,2.99,1.76,3.93,3.25,7.11,11.26,14.2,22.55,21.31,33.81.16.25.45.42,1.45,1.34v-38.17h11.44v55.73c-3.84,0-7.92.06-12-.03-2.09-.04-2.44-2.1-3.27-3.41-6.38-10.15-12.64-20.38-18.99-30.55-.84-1.34-1.3-3.03-3.39-4.08v37.74h-11.5v-55.61Z"/>
  <path class="cls-3" d="M370.79,112.71c-.05-16.63,11.44-28.18,28.26-28.43,16.83-.24,28.7,11.71,28.82,29.01.11,16.49-11.74,28.55-28.13,28.62-17.47.08-28.91-11.45-28.95-29.21ZM416.27,113.39c0-10.84-6.75-18.22-16.77-18.33-10.03-.11-17.33,7.45-17.26,17.87.07,10.91,6.74,18.15,16.83,18.29,10.18.13,17.2-7.14,17.2-17.82Z"/>
  <path class="cls-3" d="M523.11,140.89v-55.54c7.53,0,14.83-.39,22.06.12,6.13.44,11.28,3.33,13.24,9.7,1.91,6.2,1.06,11.88-4.88,16.32,6.17,2.77,9.77,6.98,9.75,13.8-.03,8.76-4.85,14.91-13.6,15.47-8.74.57-17.55.12-26.57.12ZM534.32,117.05v13.94c3.8,0,7.28.2,10.72-.05,4.12-.3,6.96-2.34,6.95-6.88,0-4.51-2.83-6.61-6.93-6.95-3.45-.29-6.93-.06-10.74-.06ZM534.11,107.84c4.98-.47,10.17,2.14,13.56-3.03,1.57-2.39,1.48-5.29-.49-7.45-3.74-4.07-8.5-1.98-13.07-2.34v12.81Z"/>
  <path class="cls-3" d="M622.93,140.83c-1.6.09-2.74.2-3.88.21-7.85.08-7.98.12-10.48-7.42-.98-2.96-2.32-4.31-5.62-4.11-4.81.3-9.66.34-14.46,0-3.84-.28-5.84,1.02-6.65,4.77-.48,2.23-1.51,4.34-2.33,6.6h-11.8c6.89-18.74,13.67-37.17,20.52-55.79,4.08,0,7.89.05,11.71-.02,1.72-.03,2.68.51,3.31,2.24,6.48,17.77,13.05,35.5,19.7,53.53ZM603.56,119.73c-2.75-7.8-5.27-14.98-8.24-23.4-3.02,8.55-5.57,15.82-8.25,23.4h16.49Z"/>
  <path class="cls-3" d="M298.75,99.37c-3.79.87-7.01,1.61-10.47,2.4-2.1-5.92-6.19-8.58-12.35-7.72-3.22.45-5.8,1.87-6.49,5.28-.71,3.52,1.76,5.26,4.48,6.3,4.49,1.73,9.17,2.98,13.68,4.68,8.57,3.22,12.63,8.92,11.91,16.38-.74,7.73-5.94,12.95-14.72,14.66-6.55,1.28-12.96.75-19.01-2.19-5.37-2.61-8.92-6.76-10.07-13.41,3.75-.92,7.37-1.8,11.5-2.81,1.82,6.32,5.88,9.83,12.66,9.4,3.36-.22,6.3-1.22,7.29-4.89,1.06-3.97-1.07-6.56-4.4-7.92-4.46-1.82-9.17-2.98-13.69-4.66-10.89-4.05-15.01-13.93-9.22-22.5,4.99-7.39,12.67-8.62,20.81-7.84,8.34.8,15.03,4.23,18.07,12.69.2.56.03,1.25.03,2.15Z"/>
  <path class="cls-3" d="M805.35,98.61c-2.68.73-5.36,1.47-7.96,2.17-5.23-7.66-9.37-9.57-16.54-7.85-3.23.77-5.41,2.69-5.93,5.98-.55,3.42,1.15,5.92,4.28,7.08,4.83,1.78,9.82,3.15,14.68,4.87,5.71,2.02,10.67,5.07,12,11.54,1.74,8.47-2.32,15.03-10.6,17.87-7.09,2.44-14.09,2.22-20.95-.7-5.72-2.43-9.37-6.67-10.81-13.17,3.08-.73,5.96-1.41,9.23-2.18,2.41,7.73,8.04,10.47,15.73,9.64,4.24-.45,7.4-2.47,8.04-6.88.6-4.08-1.95-6.62-5.47-7.97-4.5-1.73-9.14-3.1-13.7-4.66-8.88-3.03-12.68-7.95-11.98-15.49.71-7.73,5.63-12.43,14.57-13.94,12.94-2.18,22.66,2.99,25.42,13.7Z"/>
  <path class="cls-3" d="M1073.53,126.38c3.05-.74,5.78-1.4,8.95-2.17,2.44,7.5,7.96,10.5,15.64,9.63,3.83-.43,7.24-1.79,8.03-6.18.82-4.54-1.44-7.32-5.55-8.77-4.55-1.6-9.14-3.06-13.69-4.64-8.5-2.95-12.3-7.87-11.79-15.18.51-7.35,5.95-12.69,14.45-14.16,12.89-2.23,22.67,2.86,25.56,13.65-2.63.73-5.27,1.47-8.28,2.31-2.61-7.28-8.06-9.16-15.08-8.09-3.65.56-6.31,2.19-6.93,6.04-.65,3.96,1.42,6.35,4.98,7.55,5.04,1.71,10.22,3.02,15.15,4.97,10.7,4.21,14.33,14.08,8.63,22.84-3.19,4.91-8.32,6.42-13.62,7.4-12.54,2.32-23.69-3.95-26.45-15.19Z"/>
  <path class="cls-3" d="M862.91,126.37c3.04-.73,5.91-1.42,8.73-2.1,4.18,8.13,9.1,10.92,16.7,9.49,3.69-.69,6.68-2.44,7.28-6.49.6-4.07-1.69-6.71-5.19-8.16-3.68-1.52-7.49-2.74-11.3-3.93-11.37-3.53-15.49-8.13-14.61-16.49.89-8.41,7.34-13.49,18.22-14.33,10.51-.82,18.94,4.53,21.78,14.16-2.61.75-5.23,1.5-8.29,2.38-2.84-7.61-8.69-9.41-16.01-8-3.47.67-5.72,2.76-6.22,6.27-.5,3.47,1.4,5.78,4.51,6.9,4.85,1.73,9.85,3.04,14.66,4.86,6.11,2.31,11.53,5.41,11.95,13.08.47,8.58-3.12,13.78-11.34,16.49-13.07,4.32-29.36-1.66-30.88-14.14Z"/>
  <path class="cls-3" d="M989.09,132.63c.34,3.12.53,5.57-.09,8.22h-30.61v-55.49h30.58c.67,2.6.47,5.18.18,8.11h-20.97v15.49h18.44v8.18h-18.51v15.49h20.99Z"/>
  <path class="cls-3" d="M680.85,131.06h17.51v9.77h-28.71v-55.54h11.2v45.76Z"/>
  <path class="cls-3" d="M643.04,85.17v45.75h17.34v9.92h-28.8v-55.28c3.55-.95,7.15-.32,11.46-.39Z"/>
  <path class="cls-3" d="M839.44,140.85h-9.43c0-7.29-.13-14.39.06-21.49.08-3.31-.74-6.07-2.54-8.84-5.32-8.16-10.41-16.47-15.68-24.86,6.81-1.85,11.43-.51,14.32,6.06,2.13,4.82,5.36,9.15,8.5,14.36,2.93-4.81,6-8.96,8.13-13.56,2.92-6.33,7.1-9.23,14.37-6.94-1.26,3.73-3.62,7.15-6.11,10.22-9.57,11.81-13.85,24.99-11.65,40.15.21,1.45.03,2.95.03,4.91Z"/>
  <path class="cls-3" d="M934.91,140.84h-9.72c0-7.96,0-15.73,0-23.5s0-15.53,0-23.74h-13.61v-8.11h36.53c.64,2.46.45,4.9.13,7.6-4.21,1.16-8.56,0-13.32.8v46.94Z"/>
  <path class="cls-1" d="M33.02,119.07c7.21-.03,13.02,5.83,12.91,13.01-.11,6.9-6,12.61-12.92,12.52-6.9-.08-12.73-5.95-12.72-12.8.02-6.91,5.81-12.7,12.74-12.73Z"/>
  <path class="cls-1" d="M168.06,97.22c.11-7.03,5.76-12.43,12.94-12.36,6.98.07,12.68,5.81,12.63,12.75-.04,6.82-5.97,12.76-12.77,12.79-7.05.03-12.91-6.01-12.81-13.18Z"/>
  <path class="cls-1" d="M89.44,54.12c-7.38.02-13.11-5.58-13.13-12.83-.01-6.89,5.79-12.53,12.87-12.51,7.15.02,12.65,5.47,12.73,12.63.08,7.26-5.26,12.7-12.48,12.72Z"/>
  <path class="cls-1" d="M137.58,188.11c-.15,6.98-5.93,12.45-13.04,12.33-7.3-.12-12.75-5.95-12.47-13.33.27-6.95,6.14-12.32,13.22-12.1,6.96.22,12.44,6.07,12.29,13.1Z"/>
  <path class="cls-1" d="M59.19,37.89c5.71.08,10.4,4.95,10.27,10.66-.13,5.71-5.05,10.43-10.72,10.28-5.65-.15-10.42-5.11-10.32-10.74.1-5.6,5.05-10.29,10.78-10.21Z"/>
  <path class="cls-1" d="M154.88,170.8c5.87-.04,10.46,4.46,10.55,10.33.08,5.61-4.77,10.6-10.38,10.66-5.54.06-10.51-4.85-10.62-10.49-.11-5.58,4.74-10.46,10.45-10.5Z"/>
  <path class="cls-1" d="M39.83,111.48c-5.72.05-10.41-4.54-10.54-10.34-.13-5.57,4.75-10.51,10.41-10.54,5.69-.03,10.41,4.67,10.48,10.44.07,5.77-4.51,10.39-10.35,10.44Z"/>
  <path class="cls-1" d="M163.81,67.46c-.04-5.88,4.52-10.51,10.33-10.51,5.66,0,10.56,4.83,10.61,10.45.05,5.51-4.97,10.52-10.55,10.54-5.8.02-10.35-4.57-10.39-10.48Z"/>
  <path class="cls-1" d="M50.17,161.94c0,5.81-4.65,10.42-10.47,10.39-5.77-.03-10.42-4.71-10.42-10.5,0-5.61,4.94-10.53,10.55-10.5,5.69.03,10.34,4.79,10.34,10.61Z"/>
  <path class="cls-1" d="M163.8,128.26c.03-5.84,4.64-10.39,10.5-10.33,5.54.05,10.43,5.05,10.43,10.65,0,5.45-5.15,10.41-10.7,10.31-5.8-.11-10.25-4.73-10.23-10.63Z"/>
  <path class="cls-1" d="M93.89,170.8c5.71-.03,10.51,4.66,10.59,10.38.08,5.48-4.97,10.6-10.49,10.63-5.56.03-10.44-4.85-10.54-10.55-.11-5.68,4.62-10.42,10.44-10.46Z"/>
  <path class="cls-1" d="M119.76,37.88c5.79-.11,10.5,4.39,10.69,10.21.18,5.66-4.52,10.6-10.22,10.73-5.66.13-10.54-4.54-10.74-10.28-.19-5.57,4.61-10.56,10.28-10.67Z"/>
  <path class="cls-1" d="M141.48,57.31c4.06-.12,7.35,2.97,7.49,7.05.14,3.94-3.11,7.4-7.05,7.51-3.9.11-7.39-3.17-7.55-7.09-.16-3.92,3.1-7.35,7.12-7.47Z"/>
  <path class="cls-1" d="M165.17,45.69c-.04,4.09-3.16,7.18-7.25,7.17-4.09-.01-7.16-3.08-7.23-7.21-.07-4.28,3.32-7.67,7.51-7.49,4.02.17,7.01,3.39,6.97,7.54Z"/>
  <path class="cls-1" d="M72.2,172.17c-4.21,0-7.15-2.9-7.21-7.11-.06-4.1,2.97-7.29,7.04-7.41,4.13-.13,7.62,3.33,7.57,7.49-.04,3.93-3.31,7.03-7.4,7.03Z"/>
  <path class="cls-1" d="M184.11,165.42c-.17,4.18-3.28,6.93-7.63,6.74-4.17-.18-7.05-3.39-6.82-7.6.22-4.11,3.56-7.09,7.68-6.88,4.12.22,6.94,3.44,6.77,7.74Z"/>
  <path class="cls-1" d="M165.15,150.25c-.04,4.02-3.32,7.19-7.36,7.11-4.02-.08-7.16-3.36-7.09-7.41.07-4.11,3.19-7.08,7.38-7.03,4.14.06,7.11,3.13,7.07,7.32Z"/>
  <path class="cls-1" d="M56.06,72.14c4.14.03,7.14,3.11,7.12,7.31-.02,3.98-3.32,7.27-7.28,7.25-3.87-.02-7.17-3.43-7.16-7.41,0-4.03,3.24-7.18,7.32-7.15Z"/>
  <path class="cls-1" d="M63.18,183.99c-.03,4.23-3.01,7.15-7.27,7.11-4.22-.04-7.16-3.05-7.13-7.29.04-4.19,3.14-7.25,7.29-7.2,4.18.05,7.13,3.11,7.1,7.37Z"/>
  <path class="cls-1" d="M44.31,64.84c-.07,3.88-3.56,7.14-7.52,7.01-4.04-.13-7.03-3.38-6.94-7.52.09-4.05,3.4-7.18,7.43-7.01,4.04.17,7.11,3.45,7.03,7.52Z"/>
  <path class="cls-1" d="M153.18,86.94c-2.63-.33-4.17-1.92-4.07-4.6.09-2.45,1.74-4.05,4.14-4.15,2.73-.11,4.39,1.69,4.44,4.32.05,2.7-1.73,4.14-4.51,4.43Z"/>
  <path class="cls-1" d="M29,82.2c-.13,2.83-1.54,4.48-4.25,4.67-2.59.18-4.12-1.42-4.36-3.81-.27-2.69,1.26-4.59,3.91-4.84,2.68-.26,4.24,1.43,4.71,3.99Z"/>
  <path class="cls-1" d="M189.09,142.6c2.81.34,4.41,1.72,4.43,4.21.02,2.76-1.68,4.26-4.42,4.27-2.61.01-4-1.56-4.06-4.05-.07-2.85,1.8-4.03,4.05-4.42Z"/>
  <path class="cls-1" d="M139.4,166.02c-2.57-.32-4.04-1.88-3.99-4.3.06-2.67,1.78-4.41,4.5-4.28,2.44.12,3.99,1.79,3.97,4.29-.02,2.8-1.82,4.09-4.48,4.3Z"/>
  <path class="cls-1" d="M139.97,28.7c2.52.44,4.11,2,3.89,4.69-.2,2.44-1.89,3.98-4.35,3.81-2.67-.19-4.27-2.01-4.08-4.67.18-2.43,1.9-3.73,4.54-3.83Z"/>
  <path class="cls-1" d="M78.67,67.75c-.54,2.6-2,4.36-4.75,4.13-2.42-.21-3.94-1.81-3.87-4.37.08-2.55,1.72-4.12,4.11-4.16,2.68-.05,4.14,1.76,4.51,4.4Z"/>
  <path class="cls-1" d="M74.43,192.08c2.64.53,4.32,2.09,4.11,4.76-.18,2.41-1.98,4.03-4.38,3.85-2.56-.19-4.3-1.89-4.08-4.68.2-2.52,1.94-3.67,4.34-3.93Z"/>
  <path class="cls-1" d="M60.69,151.12c-2.7-.06-4.27-1.54-4.4-3.92-.15-2.69,1.54-4.4,4.24-4.49,2.49-.08,4.14,1.46,4.28,3.91.16,2.75-1.54,4.19-4.12,4.5Z"/>
  <path class="cls-1" d="M59.07,132.88c-.06,1.77-.96,2.85-2.66,3-1.76.15-2.89-.95-3.04-2.56-.17-1.87.92-3.18,2.89-3.21,1.75-.03,2.57,1.17,2.81,2.78Z"/>
  <path class="cls-1" d="M196.77,133.09c-.27,1.74-1.2,2.79-2.92,2.78-1.72,0-2.78-1.03-2.8-2.75-.02-1.93,1.06-3.17,3.04-2.99,1.64.15,2.49,1.38,2.69,2.96Z"/>
  <path class="cls-1" d="M128.92,165.89c-.4,1.94-1.36,3.07-3.07,2.99-1.67-.08-2.79-1.2-2.71-2.93.08-1.74,1.33-2.72,2.97-2.71,1.74.01,2.49,1.32,2.81,2.65Z"/>
  <path class="cls-1" d="M20.16,93.6c1.74.29,2.84,1.22,2.78,2.98-.06,1.78-1.18,2.7-2.94,2.64-1.78-.06-2.83-1.19-2.76-2.86.07-1.65,1.26-2.61,2.91-2.76Z"/>
  <path class="cls-1" d="M88.05,197.92c1.79.21,2.75,1.24,2.78,2.91.03,1.71-.99,2.82-2.7,2.85-1.95.03-3.11-1.16-2.97-3.09.11-1.64,1.23-2.59,2.89-2.67Z"/>
  <path class="cls-1" d="M88.56,66.08c-1.91.05-3.04-.92-3.17-2.56-.13-1.67.95-2.84,2.64-2.98,1.72-.14,2.81.88,2.97,2.59.16,1.77-.85,2.72-2.44,2.95Z"/>
  <path class="cls-1" d="M160.66,96.47c-.29,1.7-1.19,2.71-2.95,2.69-1.77-.02-2.78-.95-2.75-2.73.03-1.76,1.12-2.76,2.81-2.75,1.72,0,2.56,1.21,2.89,2.79Z"/>
  <path class="cls-1" d="M125.77,25.84c1.88.28,3.03,1.15,3.03,2.87,0,1.77-1.21,2.7-2.88,2.68-1.67-.02-2.81-.95-2.79-2.75.02-1.81,1.29-2.47,2.64-2.8Z"/>
  <path class="cls-2" d="M416.27,113.39c0,10.68-7.01,17.96-17.2,17.82-10.09-.13-16.76-7.38-16.83-18.29-.07-10.42,7.23-17.98,17.26-17.87,10.01.11,16.76,7.48,16.77,18.33Z"/>
  <path class="cls-2" d="M534.32,117.05c3.81,0,7.29-.23,10.74.06,4.1.34,6.92,2.44,6.93,6.95,0,4.54-2.83,6.57-6.95,6.88-3.45.25-6.92.05-10.72.05v-13.94Z"/>
  <path class="cls-2" d="M534.11,107.84v-12.81c4.56.36,9.33-1.73,13.07,2.34,1.98,2.15,2.06,5.06.49,7.45-3.39,5.17-8.58,2.56-13.56,3.03Z"/>
  <path class="cls-2" d="M603.56,119.73h-16.49c2.67-7.58,5.23-14.85,8.25-23.4,2.97,8.42,5.49,15.6,8.24,23.4Z"/>
</svg>